<mxfile host="app.diagrams.net" modified="2023-10-10T16:20:38.686Z" agent="Mozilla/5.0 (Macintosh; Intel Mac OS X 10_15_7) AppleWebKit/537.36 (KHTML, like Gecko) Chrome/117.0.0.0 Safari/537.36" etag="6MhgOAQZBEJhKszNXc-M" version="22.0.4" type="github">
  <diagram id="C5RBs43oDa-KdzZeNtuy" name="Page-1">
    <mxGraphModel dx="1781" dy="527" grid="1" gridSize="10" guides="1" tooltips="1" connect="1" arrows="1" fold="1" page="1" pageScale="1" pageWidth="827" pageHeight="1169" math="0" shadow="0">
      <root>
        <mxCell id="WIyWlLk6GJQsqaUBKTNV-0" />
        <mxCell id="WIyWlLk6GJQsqaUBKTNV-1" parent="WIyWlLk6GJQsqaUBKTNV-0" />
        <mxCell id="AKO_CZvJx3D394tUylrm-18" value="Được user khác add vào với role là Nhân viên" style="ellipse;whiteSpace=wrap;html=1;aspect=fixed;fontFamily=Helvetica;fontSize=11;fontColor=default;" parent="WIyWlLk6GJQsqaUBKTNV-1" vertex="1">
          <mxGeometry x="180" y="260" width="130" height="130" as="geometry" />
        </mxCell>
        <mxCell id="AKO_CZvJx3D394tUylrm-20" value="user với role chủ nhà hàng" style="ellipse;whiteSpace=wrap;html=1;aspect=fixed;fontFamily=Helvetica;fontSize=11;fontColor=default;" parent="WIyWlLk6GJQsqaUBKTNV-1" vertex="1">
          <mxGeometry x="-90" y="260" width="130" height="130" as="geometry" />
        </mxCell>
        <mxCell id="AKO_CZvJx3D394tUylrm-29" value="" style="group" parent="WIyWlLk6GJQsqaUBKTNV-1" vertex="1" connectable="0">
          <mxGeometry x="-10" y="70" width="245" height="130" as="geometry" />
        </mxCell>
        <mxCell id="WIyWlLk6GJQsqaUBKTNV-3" value="user" style="rounded=1;whiteSpace=wrap;html=1;fontSize=12;glass=0;strokeWidth=1;shadow=0;" parent="AKO_CZvJx3D394tUylrm-29" vertex="1">
          <mxGeometry x="72.97872340425532" width="125.10638297872342" height="40" as="geometry" />
        </mxCell>
        <mxCell id="AKO_CZvJx3D394tUylrm-33" value="" style="group" parent="WIyWlLk6GJQsqaUBKTNV-1" vertex="1" connectable="0">
          <mxGeometry x="-25" y="200" width="305" as="geometry" />
        </mxCell>
        <mxCell id="AKO_CZvJx3D394tUylrm-1" value="" style="rounded=0;html=1;jettySize=auto;orthogonalLoop=1;fontSize=11;endArrow=block;endFill=0;endSize=8;strokeWidth=1;shadow=0;labelBackgroundColor=none;edgeStyle=elbowEdgeStyle;elbow=vertical;exitX=0.5;exitY=1;exitDx=0;exitDy=0;entryX=0.5;entryY=0;entryDx=0;entryDy=0;" parent="AKO_CZvJx3D394tUylrm-33" source="WIyWlLk6GJQsqaUBKTNV-3" target="AKO_CZvJx3D394tUylrm-18" edge="1">
          <mxGeometry relative="1" as="geometry">
            <mxPoint x="245" y="-60" as="sourcePoint" />
            <mxPoint x="460" y="50" as="targetPoint" />
            <Array as="points">
              <mxPoint x="305" />
            </Array>
          </mxGeometry>
        </mxCell>
        <mxCell id="AKO_CZvJx3D394tUylrm-32" value="" style="rounded=0;html=1;jettySize=auto;orthogonalLoop=1;fontSize=11;endArrow=block;endFill=0;endSize=8;strokeWidth=1;shadow=0;labelBackgroundColor=none;edgeStyle=elbowEdgeStyle;elbow=vertical;entryX=0.5;entryY=0;entryDx=0;entryDy=0;strokeColor=default;align=center;verticalAlign=middle;fontFamily=Helvetica;fontColor=default;shape=connector;" parent="AKO_CZvJx3D394tUylrm-33" target="AKO_CZvJx3D394tUylrm-20" edge="1">
          <mxGeometry relative="1" as="geometry">
            <mxPoint x="155" as="sourcePoint" />
            <mxPoint x="105" y="-60" as="targetPoint" />
            <Array as="points">
              <mxPoint />
            </Array>
          </mxGeometry>
        </mxCell>
        <mxCell id="RtvhP8DLYkPnFSUZGjbw-1" value="" style="endArrow=classic;html=1;rounded=0;exitX=0.5;exitY=1;exitDx=0;exitDy=0;entryX=0;entryY=0;entryDx=0;entryDy=0;" edge="1" parent="WIyWlLk6GJQsqaUBKTNV-1" source="AKO_CZvJx3D394tUylrm-20" target="RtvhP8DLYkPnFSUZGjbw-4">
          <mxGeometry width="50" height="50" relative="1" as="geometry">
            <mxPoint x="50" y="370" as="sourcePoint" />
            <mxPoint x="-10" y="450" as="targetPoint" />
          </mxGeometry>
        </mxCell>
        <mxCell id="RtvhP8DLYkPnFSUZGjbw-2" value="" style="endArrow=classic;html=1;rounded=0;exitX=0.5;exitY=1;exitDx=0;exitDy=0;entryX=1;entryY=0;entryDx=0;entryDy=0;" edge="1" parent="WIyWlLk6GJQsqaUBKTNV-1" source="AKO_CZvJx3D394tUylrm-18" target="RtvhP8DLYkPnFSUZGjbw-4">
          <mxGeometry width="50" height="50" relative="1" as="geometry">
            <mxPoint x="50" y="530" as="sourcePoint" />
            <mxPoint x="217.5" y="450" as="targetPoint" />
          </mxGeometry>
        </mxCell>
        <mxCell id="RtvhP8DLYkPnFSUZGjbw-4" value="&lt;div style=&quot;&quot;&gt;&lt;span style=&quot;background-color: initial;&quot;&gt;- Tạo hoá đơn order đồ ăn&lt;/span&gt;&lt;/div&gt;&lt;div style=&quot;&quot;&gt;&lt;span style=&quot;background-color: initial;&quot;&gt;- Thêm sửa xoá các món trong hoá đơn&lt;/span&gt;&lt;/div&gt;&lt;div style=&quot;&quot;&gt;&lt;span style=&quot;background-color: initial;&quot;&gt;&lt;br&gt;&lt;/span&gt;&lt;/div&gt;" style="rounded=1;whiteSpace=wrap;html=1;align=left;" vertex="1" parent="WIyWlLk6GJQsqaUBKTNV-1">
          <mxGeometry x="15" y="430" width="220" height="140" as="geometry" />
        </mxCell>
        <mxCell id="RtvhP8DLYkPnFSUZGjbw-7" value="" style="endArrow=classic;html=1;rounded=0;exitX=0;exitY=0.5;exitDx=0;exitDy=0;entryX=0.5;entryY=0;entryDx=0;entryDy=0;" edge="1" parent="WIyWlLk6GJQsqaUBKTNV-1" source="AKO_CZvJx3D394tUylrm-20" target="RtvhP8DLYkPnFSUZGjbw-8">
          <mxGeometry width="50" height="50" relative="1" as="geometry">
            <mxPoint x="50" y="530" as="sourcePoint" />
            <mxPoint x="-310" y="410" as="targetPoint" />
          </mxGeometry>
        </mxCell>
        <mxCell id="RtvhP8DLYkPnFSUZGjbw-8" value="- Thêm sửa xoá các món ăn để cho vào menu nhà hàng" style="rounded=1;whiteSpace=wrap;html=1;" vertex="1" parent="WIyWlLk6GJQsqaUBKTNV-1">
          <mxGeometry x="-380" y="430" width="210" height="140" as="geometry" />
        </mxCell>
      </root>
    </mxGraphModel>
  </diagram>
</mxfile>
